<svg xmlns="http://www.w3.org/2000/svg" width="512" height="512" fill="none" viewBox="0 0 512 512">
  <path fill="#000" d="m404.213 336.565 42.667 85.334-19.083 9.546-42.666-85.333 19.082-9.547Zm-158.88 100.768h21.334v-95.914l-21.334-.086v96ZM65.12 421.899l19.083 9.546 42.666-85.333-19.082-9.547-42.667 85.334ZM512 85.333v192C512 294.475 500.64 320 469.333 320H42.667C11.36 320 0 294.475 0 277.333v-192h512ZM448 256H64v42.667h384V256Zm42.667-149.333H21.333v170.666c.086 4.939 1.856 21.334 21.334 21.334v-64h426.666v64c20.299 0 21.334-17.771 21.334-21.334V106.667Zm-53.334 74.666c11.787 0 21.334-9.557 21.334-21.333 0-11.776-9.547-21.333-21.334-21.333-11.786 0-21.333 9.557-21.333 21.333 0 11.776 9.547 21.333 21.333 21.333Zm-9.066 85.334H83.733V288h344.534v-21.333Z"/>
</svg>
