<svg xmlns="http://www.w3.org/2000/svg" width="512" height="512" fill="none" viewBox="0 0 512 512">
  <path fill="#000" d="M90.02 239.656c-6.774 0-12.273-5.49-12.273-12.273V39.193c0-6.775 5.499-12.274 12.273-12.274 6.775 0 12.274 5.499 12.274 12.274v188.19c0 6.783-5.499 12.273-12.274 12.273Z"/>
  <path fill="#000" d="M160.87 464.592c-13.943 0-26.412-8.853-31.043-22.018a14.559 14.559 0 0 1-.352-1.17L81.216 242.863C33.711 229.101 0 184.844 0 134.769 0 81.977 37.294 35.666 88.67 24.645l46.033-12.478c5.032-1.326 10.694-2.381 16.144-.99L315.439 51.71l46.451-11.757c4.377-1.072 10.465-1.604 14.728-1.604 28.711 0 52.963 23.925 52.963 54.46v69.361c0 14.63-6.906 29.537-16.25 39.659-9.598 10.375-23.507 17.371-37.589 17.371h-.442c-4.344 0-8.984-1.833-13.353-2.93l-42.441-11.986-132.453 39.945c-3.608.99-5.155 3.191-5.76 4.516-.606 1.326-1.416 3.928.049 6.996a12.262 12.262 0 0 1 1.162 4.492l10.694 175.5a12.518 12.518 0 0 1-.303 3.575c-3.535 14.892-16.7 25.283-32.025 25.283Zm-7.708-29.709a8.357 8.357 0 0 0 7.708 5.163 8.339 8.339 0 0 0 7.699-5.065l-10.448-171.196a32.806 32.806 0 0 1 .834-25.422 32.801 32.801 0 0 1 21.233-18.033l135.415-41.189a12.22 12.22 0 0 1 6.75-.115l45.534 12.208c2.218.548 4.631.859 6.971.859 7.16 0 15.555-2.913 20.44-8.207 5.146-5.572 9.736-13.288 9.736-21.715v-69.36c0-19.638-17.305-33.466-35.478-29.04l-50.197 12.487c-1.948.499-4.427.507-6.374.025L145.07 34.986c-.45.008-2.103.417-3.346.745l-47.22 12.756c-40.772 8.77-69.933 44.985-69.933 86.281 0 41.213 29.186 77.379 69.41 86.011a12.278 12.278 0 0 1 9.352 9.098l49.829 205.005Z"/>
  <path fill="#000" d="M319.121 198.745c-6.774 0-12.273-5.49-12.273-12.273V63.739c0-6.775 5.499-12.273 12.273-12.273 6.775 0 12.274 5.498 12.274 12.273v122.733c0 6.783-5.499 12.273-12.274 12.273Zm180.606-61.366h-57.276c-6.774 0-12.273-5.49-12.273-12.273 0-6.775 5.499-12.274 12.273-12.274h57.276c6.775 0 12.273 5.499 12.273 12.274 0 6.783-5.498 12.273-12.273 12.273Zm0 57.275h-57.276c-6.774 0-12.273-5.49-12.273-12.273 0-6.775 5.499-12.274 12.273-12.274h57.276c6.775 0 12.273 5.499 12.273 12.274 0 6.783-5.498 12.273-12.273 12.273Zm0-106.368h-57.276c-6.774 0-12.273-5.49-12.273-12.273 0-6.775 5.499-12.274 12.273-12.274h57.276c6.775 0 12.273 5.499 12.273 12.274 0 6.783-5.498 12.273-12.273 12.273Zm-33.326 413.2c-6.775 0-12.274-5.49-12.274-12.273v-1.015c0-19.613-17.624-39.896-41.287-39.896h-92.057c-16.987 0-33.613-7.258-46.819-20.439-12.494-12.478-31.943-9.909-45.845-1.776l-45.82 32.082c-5.531 3.887-13.198 2.545-17.092-3.011-3.887-5.555-2.537-13.206 3.019-17.1l46.205-32.353c.245-.172.499-.327.752-.482 26.527-15.817 57.128-13.706 76.127 5.269 8.567 8.558 19.04 13.263 29.473 13.263h92.057c39.029 0 65.834 32.77 65.834 64.443v1.015c0 6.783-5.498 12.273-12.273 12.273Z"/>
</svg>
