<svg xmlns="http://www.w3.org/2000/svg" width="512" height="512" fill="none" viewBox="0 0 512 512">
  <path fill="#fff" d="M323.2 77.867v356.266c0 11.04-8.96 20-20 20h-94.4c-11.04 0-20-8.96-20-20V77.867c0-11.04 8.96-20 20-20h94.4c11.04-.027 20 8.933 20 20Zm-22.32 144.8c0-9.307-7.547-16.88-16.88-16.88-9.307 0-16.853 7.546-16.853 16.88 0 9.333 7.546 16.88 16.853 16.88 9.307 0 16.88-7.574 16.88-16.88Zm-.08-89.067c0-24.747-20.053-44.8-44.8-44.8-24.747 0-44.8 20.053-44.8 44.8 0 24.747 20.053 44.8 44.8 44.8 24.747 0 44.8-20.053 44.8-44.8Zm-54.853 89.067c0-9.307-7.547-16.88-16.88-16.88-9.334 0-16.88 7.546-16.88 16.88 0 9.333 7.546 16.88 16.88 16.88 9.333 0 16.88-7.574 16.88-16.88Z"/>
  <path fill="#fff" d="M284 205.787c9.307 0 16.88 7.546 16.88 16.88 0 9.333-7.547 16.88-16.88 16.88-9.307 0-16.853-7.547-16.853-16.88 0-9.334 7.546-16.88 16.853-16.88Zm-71.813 16.88c0 9.306 7.546 16.88 16.88 16.88 9.333 0 16.88-7.547 16.88-16.88 0-9.334-7.547-16.88-16.88-16.88-9.334 0-16.88 7.573-16.88 16.88ZM256 150.48c9.323 0 16.88-7.557 16.88-16.88 0-9.322-7.557-16.88-16.88-16.88-9.323 0-16.88 7.558-16.88 16.88 0 9.323 7.557 16.88 16.88 16.88Z"/>
  <path fill="#fff" d="M256 88.8c24.747 0 44.8 20.053 44.8 44.8 0 24.746-20.053 44.8-44.8 44.8-24.747 0-44.8-20.054-44.8-44.8 0-24.747 20.053-44.8 44.8-44.8Zm16.88 44.8c0-9.307-7.547-16.88-16.88-16.88-9.333 0-16.88 7.546-16.88 16.88 0 9.333 7.547 16.88 16.88 16.88 9.333 0 16.88-7.574 16.88-16.88Z"/>
  <path stroke="#231F20" stroke-linecap="round" stroke-linejoin="round" stroke-miterlimit="10" stroke-width="10" d="M257.8 178.4c25.405 0 46-20.058 46-44.8 0-24.743-20.595-44.8-46-44.8s-46 20.057-46 44.8c0 24.742 20.595 44.8 46 44.8Z"/>
  <path stroke="#231F20" stroke-linecap="round" stroke-linejoin="round" stroke-miterlimit="10" stroke-width="10" d="M257.8 150.48c9.572 0 17.332-7.557 17.332-16.88 0-9.322-7.76-16.88-17.332-16.88-9.572 0-17.332 7.558-17.332 16.88 0 9.323 7.76 16.88 17.332 16.88Z"/>
  <path stroke="#231F20" stroke-linecap="round" stroke-linejoin="round" stroke-miterlimit="10" stroke-width="10" d="M188.8 434.133V77.867c0-11.04 9.2-20 20.536-20h96.928c11.336 0 20.536 8.96 20.536 20v356.266c0 11.04-9.2 20-20.536 20h-96.928c-11.336.027-20.536-8.933-20.536-20Z"/>
  <path stroke="#231F20" stroke-linecap="round" stroke-linejoin="round" stroke-miterlimit="10" stroke-width="10" d="M230.145 239.547c9.573 0 17.332-7.558 17.332-16.88 0-9.323-7.759-16.88-17.332-16.88-9.572 0-17.332 7.557-17.332 16.88 0 9.322 7.76 16.88 17.332 16.88Zm73.737-16.88c0 9.306-7.749 16.88-17.332 16.88-9.556 0-17.305-7.547-17.305-16.88 0-9.334 7.749-16.88 17.305-16.88 9.556 0 17.332 7.573 17.332 16.88Z"/>
</svg>
