<svg xmlns="http://www.w3.org/2000/svg" width="512" height="512" fill="none" viewBox="0 0 512 512">
  <g clip-path="url(#a)">
    <path fill="#000" d="m468.462 320.576-82.944-42.609c-20.305-10.464-46.56-6.896-63.391 8.576l-9.681 8.864c-9.391 8.641-24.032 10.641-35.407 4.753-28.288-14.56-50.912-37.184-65.488-65.408-5.968-11.584-4.064-25.792 4.783-35.392l8.881-9.664a55.745 55.745 0 0 0 14.752-37.824c0-8.832-2.145-17.664-6.192-25.536l-42.656-82.88C177.311 16.672 150.03 0 119.934 0c-17.695 0-34.463 5.665-48.48 16.368L46.24 35.6C6.64 65.776-9.633 117.888 5.711 165.264 56.815 322.865 180.67 449.969 337.022 505.28a117.332 117.332 0 0 0 39.217 6.72c31.312 0 61.84-12.72 83.776-34.944l28.881-29.2c14.911-15.072 23.103-35.008 23.103-56.143 0-30.097-16.688-57.345-43.537-71.137Zm-13.743 93.584-28.864 29.2c-18.528 18.752-47.873 25.52-72.833 16.688-142.351-50.336-255.12-166.08-301.647-309.568-9.072-28.048.544-58.88 23.984-76.752L100.59 54.48c5.584-4.255 12.272-6.512 19.343-6.512 12.032 0 22.96 6.672 28.48 17.44l42.64 82.88a7.83 7.83 0 0 1 .88 3.599c0 2.56-1.152 4.337-2.127 5.392l-8.864 9.648c-22.368 24.32-27.217 60.4-12.064 89.792 19.136 37.151 48.96 66.912 86.16 86.08 28.88 14.88 65.968 9.873 89.856-12.048l9.696-8.895c1.568-1.441 5.631-2.945 8.992-1.233l82.944 42.608c10.784 5.536 17.472 16.448 17.472 28.481-.016 8.432-3.312 16.4-9.28 22.448Z"/>
  </g>
  <defs>
    <clipPath id="a">
      <path fill="#fff" d="M0 0h512v512H0z"/>
    </clipPath>
  </defs>
</svg>
